<svg id="Laag_1" data-name="Laag 1" xmlns="http://www.w3.org/2000/svg" viewBox="0 0 575.61 317.38">
  <defs>
    <style>
      .cls-1 {
        fill: #a21814;
      }

      .cls-2 {
        fill: #db0d15;
      }

      .cls-3 {
        fill: #2e2d2c;
      }

      .cls-4 {
        fill: #ffffff;
      }

      .cls-5 {
        fill: #ffffff;
      }
    </style>
  </defs>
  <polygon class="cls-1"
    points="296.62 53.08 296.63 53.06 148.33 0 148.33 317.38 272.62 248.98 272.62 248.94 272.65 248.98 296.66 53.06 296.62 53.08" />
  <polygon class="cls-2"
    points="0.03 53.06 0.04 53.08 0 53.06 24.01 248.97 24.04 248.94 24.05 248.97 148.33 317.38 148.33 0 0.03 53.06" />
  <path class="cls-3" d="M286.87,144.65" transform="translate(-138.54 -142.06)" />
  <polygon class="cls-4"
    points="235.34 232.78 148.33 39.21 148.33 101.84 174.67 162.7 148.33 162.7 148.33 188.52 186.1 188.52 205.28 232.78 235.34 232.78" />
  <polygon class="cls-5"
    points="61.32 232.78 148.33 39.21 148.33 101.84 121.99 162.7 148.33 162.7 148.33 188.52 110.56 188.52 91.38 232.78 61.32 232.78" />
  <path class="cls-6"
    d="M536.65,260.23h7.26l-15.15-40h-6.24l-15.12,40h7.23l3.24-9.32h15.51Zm-11-31.53,5.8,16.61H519.82Zm21.31,1.79v29.74h6.68V239.07a6.44,6.44,0,0,1,6-3.66,5.13,5.13,0,0,1,4,1.36,6.1,6.1,0,0,1,1.23,4.19v19.27h6.68V240.58q-.18-10.65-9.46-10.64a10.72,10.72,0,0,0-8.66,4l-.19-3.43Zm34.11,26.14a10.44,10.44,0,0,0,8.54,4.15,9.83,9.83,0,0,0,7.7-3.22v2a6.9,6.9,0,0,1-1.93,5.29,7.37,7.37,0,0,1-5.25,1.8,9.52,9.52,0,0,1-7.58-3.65l-3.16,4a11.25,11.25,0,0,0,4.74,3.56,15.79,15.79,0,0,0,6.39,1.36q6.18,0,9.83-3.38t3.64-9.23V230.49h-6l-.31,3a9.78,9.78,0,0,0-8-3.54,10.45,10.45,0,0,0-8.65,4.14q-3.25,4.14-3.26,11.06,0,7.34,3.31,11.49M586.22,238a5.91,5.91,0,0,1,5.13-2.61,6.36,6.36,0,0,1,5.94,3.38v13.08a6.43,6.43,0,0,1-6,3.47,5.89,5.89,0,0,1-5.08-2.57,12.07,12.07,0,0,1-1.82-7.05q0-5.08,1.82-7.7m43.35,22.21h6.3V230.49h-6.68v21.36q-1.71,3.5-6.57,3.49-4.7,0-4.7-5.66V230.49h-6.68v19.27q0,5.36,2.49,8.19t7.32,2.83q5.41,0,8.36-3.46ZM650.34,218h-6.68v42.22h6.68Zm32.42,42.22v-.46a15.3,15.3,0,0,1-1.12-6.41V240a9.39,9.39,0,0,0-3.19-7.39,12.48,12.48,0,0,0-8.33-2.62,15.46,15.46,0,0,0-6.23,1.21,10.82,10.82,0,0,0-4.41,3.34,7.41,7.41,0,0,0-1.62,4.58h6.68a3.56,3.56,0,0,1,1.46-2.91,5.86,5.86,0,0,1,3.73-1.14,4.67,4.67,0,0,1,5.23,5.09v1.95h-4.1q-6.57,0-10.1,2.55a8.41,8.41,0,0,0-3.53,7.29,8.19,8.19,0,0,0,2.83,6.33,11.26,11.26,0,0,0,15.12-.77,10.38,10.38,0,0,0,.76,2.77Zm-17.58-6a3.9,3.9,0,0,1-1.27-3.06,4.18,4.18,0,0,1,1.87-3.66,9.82,9.82,0,0,1,5.57-1.29H675v5.6a6.44,6.44,0,0,1-2.63,2.59,7.61,7.61,0,0,1-3.72,1,5,5,0,0,1-3.43-1.14m39.61-24a6.17,6.17,0,0,0-2.36-.38,7.53,7.53,0,0,0-6.71,3.88l-.16-3.33h-6.38v29.74h6.68V239.89c1.06-2.35,3.13-3.52,6.19-3.52a17.31,17.31,0,0,1,2.72.22Z"
    transform="translate(-138.54 -142.06)" />
  <path class="cls-6"
    d="M701.69,332.57a9.2,9.2,0,0,1,3.49,7.69,9.37,9.37,0,0,1-3.77,7.86Q697.65,351,690.58,351c-5.06,0-9.09-1.18-12.12-3.55a11.69,11.69,0,0,1-4.53-9.7h-9a17.91,17.91,0,0,0,3.27,10.56,21.93,21.93,0,0,0,9.33,7.32,31.86,31.86,0,0,0,13,2.67q10.74,0,17.15-4.95a15.81,15.81,0,0,0,6.42-13.18,17.05,17.05,0,0,0-2.3-9,20,20,0,0,0-7.07-6.68,55.68,55.68,0,0,0-13.2-5.23q-8.45-2.37-12-5.24a8.71,8.71,0,0,1-3.51-7,9.71,9.71,0,0,1,3.69-8.08q3.71-2.91,10.3-2.91,7.11,0,11,3.52t3.91,9.68h9a19,19,0,0,0-3-10.37,20.49,20.49,0,0,0-8.46-7.44,27.84,27.84,0,0,0-12.44-2.69q-10.23,0-16.62,5.23a16.36,16.36,0,0,0-6.39,13.22,15.47,15.47,0,0,0,5.23,11.88q5.22,4.82,16.71,8.12,9.16,2.64,12.65,5.37M615.39,297H628.6q6.64,0,9.9,2.54t3.26,8.13a9.82,9.82,0,0,1-3.51,8q-3.51,2.94-9.37,2.94H615.39Zm14.88,28.73q13.31,0,13.3,12.23a11.34,11.34,0,0,1-3.6,8.9c-2.41,2.16-5.68,3.23-9.84,3.23H615.39V325.71ZM630,357.37q10.78,0,16.69-5.21t5.9-14.32a16.78,16.78,0,0,0-3.18-10.25,15.69,15.69,0,0,0-8.67-5.83,17.5,17.5,0,0,0,7.34-5.65,13.73,13.73,0,0,0,2.7-8.39q0-8.93-5.56-13.49t-16.57-4.55H606.47v67.69Zm-49.1-31q-.14,11.76-4.88,18.06t-13.39,6.3a15.84,15.84,0,0,1-13.51-6.67q-4.91-6.68-4.91-18.34v-5q.15-11.43,5-17.87a15.77,15.77,0,0,1,13.33-6.44q8.68,0,13.52,6.44t4.84,18.48Zm8.88-4.93a42.07,42.07,0,0,0-3.35-17.36,25.28,25.28,0,0,0-9.55-11.4,26.32,26.32,0,0,0-14.34-3.92,25.09,25.09,0,0,0-23.81,15.43,41.42,41.42,0,0,0-3.39,17.25v4.88a40.13,40.13,0,0,0,3.51,16.86,25.26,25.26,0,0,0,23.78,15.13,26.13,26.13,0,0,0,14.32-3.9,25.4,25.4,0,0,0,9.48-11.32,42,42,0,0,0,3.35-17.37Zm-79.6,16.32q0,6.28-3.46,9.77a12,12,0,0,1-8.95,3.48q-6,0-9.23-3.25t-3.19-9.07h-8.92q0,9.3,5.62,14.46t15.72,5.16q9.72,0,15.55-5.48t5.83-15.21V289.68h-9Z"
    transform="translate(-138.54 -142.06)" />
  <polygon class="cls-6" points="325.54 64.37 304.71 230 310.68 226.69 330.85 66.3 325.54 64.37" />
</svg>